<?xml version="1.0" encoding="utf-8"?>
<!-- Generator: Adobe Illustrator 23.0.3, SVG Export Plug-In . SVG Version: 6.00 Build 0)  -->
<svg version="1.1" id="Layer_1" xmlns="http://www.w3.org/2000/svg" xmlns:xlink="http://www.w3.org/1999/xlink" x="0px" y="0px"
	 viewBox="0 0 644 638" style="enable-background:new 0 0 644 638;" xml:space="preserve">
<style type="text/css">
	.st0{fill:#29B3E7;}
	.st1{fill:#FFFFFF;}
</style>
<path class="st0" d="M305,628c40.3,0,78.4-3.5,117-15.7C528,578.9,605.4,484.1,627.5,377c7.6-36.8,6.6-78.1,0.2-115
	c-2.9-16.4-11.8-33.5-12.6-50c-0.4-7.9,2.6-17.1,3.7-25c3.5-24.4,11.2-50.3,11.2-75c-20.8-2.5-41.8-10.8-62-16.3
	c-13.2-3.6-28.3-5.6-40.7-11.5C510.1,76.1,495.6,60.6,479,51c-39.7-22.9-87-38.9-133-41c-49.8-2.2-98.9,4.6-145,24.1
	C83.3,83.8,5.3,209.2,14.1,337c3.1,44.3,15,87.4,35.3,127c35,68.5,97.3,117.6,167.6,145.6c18.3,7.3,55.6,14.1,64,15.9
	c5.1,1.1,9.5,1.7,13.6,2.1C299,627.9,302.7,628,305,628z"/>
<path class="st1" d="M418,84v1l11,2v2c-5.6-0.2-10.6-3.7-16-3.7c-3.7,0-7.6,2.5-11,3.6c-9.9,3.2-27.9,7.6-35,15.1
	c14.5,4,29.5,13.3,44.2,15.4c3.7,0.5,8.5-3,11.8-4.4c10-4.1,26.6-8,34-16l-28-8v-2l35,10c7.9-7.1,26.6-13.6,37-16
	c-4-6.1-15.3-6.6-22-8.1c-6.9-1.5-13.8-5.1-21-5.2C446.6,69.6,427.6,78.1,418,84 M468,99v1c11.9,3.4,23.9,6.8,35.7,10.7
	c5.2,1.7,12.7,5.6,18.2,5c11.5-1.4,27-12.2,37.1-17.7c-5-4-12.7-3.9-18.7-5.7c-9.7-3-23.3-8.8-33.5-8.8
	C495.1,83.6,478.9,94.7,468,99 M528,116v2c12.7,2.8,25.7,6.8,38,11c7,2.4,16.5,6.5,24,5.7c6.2-0.7,12.4-5.8,17.7-8.7
	c5.1-2.8,14.1-6.5,16.3-12c-19.5-0.6-39.3-16.3-59-14.7C551.9,100.3,540.7,113.1,528,116 M418,120c3.6,6.3,15.5,7.7,22,9.8
	c9.1,3.1,22.3,10.9,32,9.8c15.7-1.7,28.6-16.7,44-19.7c-3.3-6.2-13.9-6.8-20-9c-8.7-3.2-23.7-10.8-33-9.5
	C447.3,103.7,433.5,116.8,418,120 M307,127c10.6,4.5,21.2,9.4,32,13.3c3.2,1.2,7.6,4.2,11,4.2c9,0,20.6-8.3,29-11.3
	c7.4-2.6,21.2-6,25-13.2c-13.7-3.1-27.9-14.4-42-14.6c-11-0.2-24.2,8.1-34.3,11.9C321.2,119.8,311.2,120.9,307,127 M479,142
	c12.2,8.7,31.9,13,46,18.1c4.9,1.8,11.7,5.8,17,5.2c7-0.8,15.3-8.5,21.1-12.3c5.8-3.8,17.8-8.7,18.9-16l-58-16.9l-15,5.9L479,142
	 M584,203l14-8.3l18-13.3l3.4-17.4l7.6-44c-8.3,1.2-29.9,13.9-34,21.2c-3,5.2-2.3,14-3.3,19.8C587.5,174.7,584,189,584,203 M410,122
	l-53,24c9.7,7.8,23.9,11.6,35,16.9c5,2.4,12.4,7,18,7c4.9,0,10.7-4.4,15-6.5c11.9-5.7,32-11.8,41-21.4L410,122 M304,130
	c2.2,14.6,4.4,29.4,6.7,44c0.8,5,0.6,15.2,3.6,19.2c3.8,5,14.5,8.2,20,11.4c6.1,3.5,15.5,11.2,22.7,9.5l-4.9-40l-2.9-24.4l-11.1-6.1
	L304,130 M414,172v6l40-13.2l15-6.5l1-13.4C449.9,147.7,433.8,167.7,414,172 M476,145v11l-3,1v1c19.8,0.1,38.1,22.6,57,28v3
	l-51,20.7l-18,6.4l-15.7-10L410,182l2-3l-2-5l-54-23l3.8,49l3.2,19.4l15.8,8.9L410,245l-4-61l37.5,26.5l13.5,10.8l1,21.7l1,51
	c-13.7-5.4-27-21.6-38-31.3c-5.9-5.2-10.9-7.2-11-15.7l-48-23l4.4,39l2.9,15.7l14.5,10L416,309v-48h1c6.8,15.7-0.3,34.2,5.6,49.8
	c1.8,4.8,8.8,7.2,12.7,9.9c12.4,8.6,29.2,23.4,43.7,27.3v-43c0-5.6-1.5-13,5-15l-2,56l33.7-27.3l12.7-11.9L530,285l1-43
	c7.6-4.9,4.7-24,5-32c0.4-8.4,1.3-17.6,2.2-26c0.4-3.5,2.3-9.3,0.6-12.5c-2.4-4.6-12.5-6.3-16.9-8.1C506.7,157.3,491,151.9,476,145
	 M538,239c10.9-3.5,22-15,31-22c3.1-2.4,8.3-5,10.2-8.6c2.2-4.1,0.3-9.9,1.3-14.4c3.3-15.3,5.5-33.3,5.5-49l-18,9.7l-22.2,15.8
	l-2.9,20.5L538,239 M574,267l8-4c-2.6,3.6-7,6.3-9,10.2c-5.9,11.2-5.9,33.3-6,45.8l13.9-10.9l16.6-16.3l2.7-14.8l4.7-31l-23,17
	c6.4-8.8,17.4-13.4,23.5-22.3c5.5-8,4.6-20.5,5.6-29.6c0.9-7.7,3.8-15.2,3.9-23l-26,18.6l-8.1,6.9l-1.2,12.5L574,267z"/>
<path class="st0" d="M464,296l47-22.7l18-10.4l1.2-19.8l3.8-50c-17.2,2.1-37.1,14-53,20.9c-4.6,2-14.1,3.5-16.4,8.5
	C462,227.8,464,238,464,244V296z"/>
<path class="st1" d="M315,197l5.6,35l3.2,18.4l9.8,7.6l30.4,18l-4-34l-3.4-22.2L345,213L315,197 M534,302l21-16v4l-12.2,8.5
	l-12,11.6L530,328l-2,30l15-13.7l19.2-19.8l2.9-14.5l2.8-33l-13,9l15.7-15.2l3.4-24.8l3.9-31l-28.3,20.4L537,246l-1.1,17L534,302
	 M325,257l5.6,33l2.7,12.6l11.6,9.4l26.1,18l-3-33l-3.1-15.5l-12.7-8.5L325,257 M370,285c0.4,9.4,2.2,18.7,2.9,28
	c0.5,6.2,0,14.8,3,20.5c2.1,3.9,8.3,6.7,11.9,9.1c10,6.7,21.4,18.7,33.3,21.4l-3.6-48.7l-12.5-9.5L370,285 M526,313l-29.5,26
	L482,352.2l-1,15.8l-1,36h1c9-10.4,19.9-19.7,29.7-29.3c4.1-4,10-7.8,12.5-13.1c5.8-12.4,4.9-35,4.9-48.6H526 M422,317l1,32l2,17.8
	l18.3,13.7L477,404l1-37l-1-14.8l-15.2-10.8L422,317 M332,406c-9,2.5-9.3,15.6,0,18.3c4.4,1.3,8.4-2.1,12-4.3l-2,5l4-2
	c1.7,7.6,12.4,15.3,18.5,6.7c2.4-3.4,1.2-7.9,0.5-11.7c5.1-0.7,15.9-9.2,11.9-15.4c-4.7-7.3-17,2.1-23.4-0.1
	c-4.5-1.6-21.7-29-22.6-10.4c-0.1,2,0,4,0,6C331,400.8,331.4,403.3,332,406 M122,474h-14c0,6,0.7,13.6,5.8,17.7
	c9.5,7.8,33.3,5.2,36.8-8c2-7.6,1-18.3-6-23c-6-4-25.2-7.5-19.7-18.4c4.9-9.7,10,3.5,13.4,5.1c3,1.4,7.5,0.6,10.7,0.6
	c0-5.7-0.4-11.2-5.1-15.2c-9.2-8-30.1-5.4-33.5,7.5c-2.9,11,0.9,20.4,10.8,25.5c5,2.5,12.9,3.3,15,9.3
	C140.3,486.6,122.4,488,122,474 M153,441h15v54l12.7-1.9L182,479l-1-38h14c0-3.2,0.9-8.4-1.9-10.7c-2.3-1.9-6.3-1.3-9.1-1.3
	c-6.7,0-23.8-3.1-29.1,1.3C152.1,432.6,153,437.8,153,441 M199,495h12v-46h1l6.6,33l4,12l9.3,1l10-47h1v33l1.2,12.4L255,495v-66h-19
	l-8,41h-2c-0.8-9.6-2.4-30.8-8-38.6c-2.5-3.5-16.3-4.3-18.4-0.1c-2.3,4.7-0.6,13.5-0.6,18.7V495 M265,448h6c0.3-2.5,0.8-4.6,2.1-6.8
	c9.4-16,28.9,6.5,11.9,15.5c-2.5,1.3-5.2,1.3-8,1.3c1.6,9.3,17.4,5.7,16.8,19c-0.4,8.3-10,17.1-17.7,11.5c-4.1-3-3.6-7.8-6.8-10.8
	c-1.8-1.7-4.9-1.1-5.3,1.5c-3.7,20.5,34.3,22,35.9-0.2c0.2-3.1,0.2-6.4-1-9.3c-1.8-4.4-5.4-7.5-8.9-10.6c24-9.8-8.2-47.2-22.8-20.8
	C265.5,441.4,265,444.4,265,448 M342,495v-6h-27c2.8-15.4,21.4-18.7,25.9-33c2.5-7.7,1.7-18.9-5.7-23.7c-10.8-7-26.7,0.5-27,13.7
	c-0.1,2.8,2.3,6,5.2,3.4c2.4-2.2,1.8-6.8,3.9-9.5c6.1-8.1,16.2-3.9,18.2,5.2c3.2,14.6-17.5,23.7-24,34.5c-4.8,8-5,15.5,5.5,15.5h10
	H342 M240,531c0-5.8,0.6-11.5-2.7-16.5c-6-9.1-22.4-10.3-30.5-3.5c-17.9,15.2-10.5,78.3,23.2,61.2c7.6-3.9,11.3-12.7,9.9-21.1
	c-0.8-4.8-8.6-5.5-12-2.7c-3.5,2.9-1.1,8.9-3.8,12.5c-2.2,2.9-5.9,3.4-8.5,0.8c-5.9-5.9-3.3-27.7-2.5-35.6c0.4-3.7,2.1-8,6.5-8
	c7.6-0.1,4.4,7.6,7.5,11.3C229.5,532.3,236.6,531,240,531 M292,508v64l13-2c6.2,6.5,17.6,5,21.6-3.3c4.5-9.4,4.3-27.3-0.4-36.7
	c-3.5-7.1-16.7-9-21.2-2h-1v-20H292 M269,570h1h1l13,2v-34l-1.6-12.4L271,524c0,10.2,0.9,20.9-0.1,31c-0.3,3.2-1.9,8.1-5.9,8.1
	c-4.1,0-5.7-4.8-5.9-8.1c-0.8-10.2-0.1-20.8-0.1-31c-3,0-8.7-1.1-10.8,1.6c-2,2.5-1.2,7.4-1.2,10.4c0,9-3.1,25.1,2,32.9
	C253.1,575.2,264.4,576.1,269,570 M347,551h24c0-7.8,0.6-17.5-5.4-23.5c-10.7-10.8-28.7-1.3-31,11.5c-1.7,9.3-2,25.7,6.5,31.9
	c9.4,6.8,28.5,3.2,28.4-10.8c0-4.7-6.9-5.1-10-2.9c-2.1,1.5-2.6,4.5-4.9,5.9C347.9,566.9,347.2,554.7,347,551z"/>
<path class="st0" d="M358,543c0-1.6,0.1-3.4-0.1-5c-2.1-12.6-15.4,0.7-8.4,4.4C351.8,543.6,355.5,543,358,543 M307.5,535
	c-5.6,3.8-4,17.5-2.3,23c1,3.3,3.7,6.8,7.5,4.5c6.1-3.6,4.4-17.1,2.9-22.5C314.6,536.4,311.9,532,307.5,535z"/>
</svg>
