<?xml version="1.0" encoding="utf-8"?>
<!-- Generator: Adobe Illustrator 23.0.3, SVG Export Plug-In . SVG Version: 6.00 Build 0)  -->
<svg version="1.1" id="svg2" xmlns:svg="http://www.w3.org/2000/svg"
	 xmlns="http://www.w3.org/2000/svg" xmlns:xlink="http://www.w3.org/1999/xlink" x="0px" y="0px" viewBox="0 0 351.5 258.8"
	 style="enable-background:new 0 0 351.5 258.8;" xml:space="preserve">
<style type="text/css">
	.st0{fill:#77B900;}
</style>
<title  id="title4">generated by pstoedit version:3.44 from NVBadge_2D.eps</title>
<rect x="6.2" y="23" width="325" height="217"/>
<path id="path21" class="st0" d="M89.9,120.7c0,0,22.5-33.2,67.4-36.6V72c-49.8,4-92.9,46.1-92.9,46.1s24.4,70.6,92.9,77v-12.8
	C107.1,176.1,89.9,120.7,89.9,120.7z M157.3,157v11.7c-38-6.8-48.5-46.2-48.5-46.2s18.2-20.2,48.5-23.5v12.9c0,0,0,0-0.1,0
	c-15.9-1.9-28.3,12.9-28.3,12.9S135.9,149.8,157.3,157 M157.3,49.8V72c1.5-0.1,2.9-0.2,4.4-0.3c56.6-1.9,93.4,46.4,93.4,46.4
	s-42.3,51.5-86.5,51.5c-4,0-7.8-0.4-11.4-1v13.7c3,0.4,6.2,0.6,9.5,0.6c41.1,0,70.7-21,99.5-45.8c4.8,3.8,24.3,13.1,28.3,17.2
	c-27.3,22.9-91,41.3-127.1,41.3c-3.5,0-6.8-0.2-10.1-0.5v19.3h156V49.8H157.3z M157.3,99V84.1c1.4-0.1,2.9-0.2,4.4-0.2
	c40.7-1.3,67.4,35,67.4,35s-28.8,40-59.7,40c-4.4,0-8.4-0.7-12-1.9v-45.1c15.8,1.9,19,8.9,28.6,24.8l21.2-17.9
	c0,0-15.5-20.3-41.5-20.3C162.7,98.5,160,98.7,157.3,99"/>
</svg>
