<?xml version="1.0" encoding="utf-8"?>
<!-- Generator: Adobe Illustrator 23.0.3, SVG Export Plug-In . SVG Version: 6.00 Build 0)  -->
<svg version="1.1" id="Layer_1" xmlns="http://www.w3.org/2000/svg" xmlns:xlink="http://www.w3.org/1999/xlink" x="0px" y="0px"
	 viewBox="0 0 128 128" style="enable-background:new 0 0 128 128;" xml:space="preserve">
<g>
	<g>
		<path d="M64,2C29.8,2,2,29.8,2,64s27.8,62,62,62s62-27.8,62-62S98.2,2,64,2z M24.7,32.6c9.6-12.5,24.2-19.6,39.9-19.6
			c15.2,0,31,7.8,40.9,19.8l0-2.3c0-0.9,0.7-1.7,1.6-1.7c0.9,0,1.7,0.7,1.7,1.6l0.1,7.3c0,0,0,0,0,0c0,0.1,0,0.1,0,0.2
			c0,0,0,0.1,0,0.1c0,0.1,0,0.1-0.1,0.2c0,0,0,0.1,0,0.1c0,0.1-0.1,0.2-0.1,0.2c0,0,0,0,0,0.1c0,0.1-0.1,0.1-0.2,0.2c0,0,0,0,0,0
			l0,0c0,0-0.1,0-0.1,0.1c-0.1,0-0.1,0.1-0.2,0.1c0,0,0,0,0,0c0,0,0,0,0,0c-0.1,0.1-0.2,0.1-0.4,0.2c0,0-0.1,0-0.1,0
			c-0.1,0-0.3,0.1-0.4,0.1c0,0,0,0,0,0h0h0h-7.8c-0.9,0-1.6-0.7-1.6-1.6s0.7-1.6,1.6-1.6h4.6c-9.2-12-24.6-19.9-39.4-19.9
			c-14.7,0-28.3,6.7-37.3,18.4c-0.6,0.7-1.6,0.9-2.3,0.3C24.3,34.3,24.1,33.3,24.7,32.6z M66.7,114.1c-0.7,0-1.4,0-2.1,0
			c-27.8,0-50.5-22.7-50.5-50.6c0-5.1,2-11.1,3.8-16.2l-2.7,1.4c-0.8,0.4-1.8,0.1-2.2-0.7c-0.4-0.8-0.1-1.8,0.7-2.2l6.5-3.3
			c0,0,0,0,0,0c0.1,0,0.1-0.1,0.2-0.1c0,0,0.1,0,0.1,0c0.1,0,0.1,0,0.2,0c0,0,0.1,0,0.1,0c0.1,0,0.1,0,0.2,0c0,0,0.1,0,0.1,0
			c0.1,0,0.1,0,0.2,0c0,0,0.1,0,0.1,0c0,0,0,0,0,0c0,0,0,0,0,0c0.1,0,0.1,0,0.1,0.1c0,0,0.1,0,0.1,0.1c0.1,0,0.1,0.1,0.2,0.1
			c0,0,0.1,0,0.1,0.1c0.1,0.1,0.1,0.1,0.1,0.2c0,0,0,0.1,0.1,0.1c0.1,0.1,0.1,0.2,0.2,0.3l0,0l3.1,6.9c0.4,0.8,0,1.8-0.8,2.2
			c-0.2,0.1-0.4,0.1-0.7,0.1c-0.6,0-1.2-0.4-1.5-1l-1.4-3.3c-1.8,4.9-3.7,10.6-3.7,15.3c0,26.1,21.2,47.3,47.2,47.3c0.7,0,1.3,0,2,0
			c0.9,0,1.7,0.7,1.7,1.6C68.3,113.3,67.6,114.1,66.7,114.1z M70.2,97.2c0,0.9-0.7,1.6-1.6,1.6h-8.3c-0.9,0-1.6-0.7-1.6-1.6v-6
			c-3.3-0.7-6.4-2-9.2-3.9l-4.2,4.2c-0.3,0.3-0.7,0.5-1.2,0.5s-0.9-0.2-1.2-0.5l-5.9-5.9c-0.6-0.6-0.6-1.7,0-2.3l4.2-4.2
			c-1.8-2.8-3.1-6-3.8-9.3h-5.9c-0.9,0-1.6-0.7-1.6-1.6v-8.4c0-0.9,0.7-1.6,1.6-1.6h5.9c0.7-3.3,2-6.5,3.8-9.3l-4.2-4.2
			c-0.6-0.6-0.6-1.7,0-2.3l5.9-5.9c0.6-0.6,1.7-0.6,2.3,0l4.2,4.2c2.8-1.8,6-3.2,9.2-3.9v-6c0-0.9,0.7-1.6,1.6-1.6h8.3
			c0.9,0,1.6,0.7,1.6,1.6v6c3.3,0.7,6.4,2,9.2,3.9l4.2-4.2c0.6-0.6,1.7-0.6,2.3,0l5.9,5.9c0.6,0.6,0.6,1.7,0,2.3l-4.2,4.2
			c1.8,2.8,3.1,6,3.8,9.3h5.9c0.9,0,1.6,0.7,1.6,1.6v8.4c0,0.9-0.7,1.6-1.6,1.6h-5.9c-0.7,3.3-2,6.5-3.8,9.3l4.2,4.2
			c0.6,0.6,0.6,1.7,0,2.3l-5.9,5.9c-0.6,0.6-1.7,0.6-2.3,0l-4.2-4.2c-2.8,1.8-6,3.2-9.2,3.9V97.2z M81.6,110.6l2.9,1.3
			c0.8,0.4,1.2,1.3,0.8,2.2c-0.3,0.6-0.9,1-1.5,1c-0.2,0-0.5,0-0.7-0.1l-6.6-3c-0.1,0-0.2-0.1-0.3-0.2c0,0,0,0,0,0
			c-0.1-0.1-0.2-0.2-0.3-0.3c0,0,0-0.1-0.1-0.1c-0.1-0.1-0.1-0.2-0.2-0.4c0,0,0,0,0,0c0,0,0,0,0,0c0,0,0,0,0,0c0,0,0-0.1,0-0.1
			c0-0.1,0-0.2,0-0.2c0,0,0-0.1,0-0.1c0-0.1,0-0.2,0-0.2c0,0,0-0.1,0-0.1c0-0.1,0-0.1,0.1-0.2c0,0,0-0.1,0.1-0.1
			c0-0.1,0.1-0.1,0.1-0.2c0,0,0,0,0-0.1l3.9-6.1c0.5-0.8,1.5-1,2.3-0.5c0.8,0.5,1,1.5,0.5,2.3l-1.3,2c18-7.6,30.6-25.3,30.6-43.7
			c0-5.9-1.1-11.6-3.1-17c-0.3-0.8,0.1-1.8,0.9-2.1c0.8-0.3,1.8,0.1,2.1,0.9c2.2,5.8,3.3,11.9,3.3,18.2
			C115.1,83.6,101.2,102.8,81.6,110.6z"/>
		<path d="M64.4,50c-7.6,0-13.9,6.3-13.9,14s6.2,14,13.9,14s13.9-6.3,13.9-14C78.2,56.3,72,50,64.4,50z M64.4,74.6
			c-5.8,0-10.6-4.8-10.6-10.7s4.7-10.7,10.6-10.7S74.9,58.1,74.9,64S70.2,74.6,64.4,74.6z"/>
	</g>
</g>
</svg>
