<?xml version="1.0" encoding="utf-8"?>
<!-- Generator: Adobe Illustrator 23.0.3, SVG Export Plug-In . SVG Version: 6.00 Build 0)  -->
<svg version="1.1" id="Layer_1" xmlns="http://www.w3.org/2000/svg" xmlns:xlink="http://www.w3.org/1999/xlink" x="0px" y="0px"
	 viewBox="0 0 67 66.4" style="enable-background:new 0 0 67 66.4;" xml:space="preserve">
<style type="text/css">
	.st0{fill:#6CC46F;}
	.st1{fill:#121412;}
</style>
<g id="XMLID_1_">
	<g>
		<rect x="5" y="3.9" class="st0" width="58.6" height="58.6"/>
	</g>
</g>
<g id="XMLID_2_">
	<g>
		<path class="st1" d="M65.5,5.5v56c0,2.2-1.8,4-4,4h-56c-2.2,0-4-1.8-4-4v-56c0-2.2,1.8-4,4-4h56C63.7,1.5,65.5,3.3,65.5,5.5z
			 M60.5,56.5v-46c0-2.2-1.8-4-4-4h-46c-2.2,0-4,1.8-4,4v46c0,2.2,1.8,4,4,4h46C58.7,60.5,60.5,58.7,60.5,56.5z"/>
		<path class="st1" d="M12,12.5c0.8,0,1.5-0.7,1.5-1.5S12.8,9.5,12,9.5s-1.5,0.7-1.5,1.5S11.2,12.5,12,12.5z M12,57.5
			c0.8,0,1.5-0.7,1.5-1.5s-0.7-1.5-1.5-1.5s-1.5,0.7-1.5,1.5S11.2,57.5,12,57.5z M28.5,42l-2.7-2.7l2.7-2.7l-1.4-1.4L23,39.3
			l4.1,4.1L28.5,42z M30.6,49.4L38,32l-1.9-0.8l-7.3,17.4L30.6,49.4z M39.6,35.3l-1.4,1.4l2.7,2.6L38.2,42l1.4,1.5l4.1-4.1
			L39.6,35.3z M44,52.6v-2H22.9v2H44z M55,57.5c0.8,0,1.5-0.7,1.5-1.5s-0.7-1.5-1.5-1.5s-1.5,0.7-1.5,1.5S54.2,57.5,55,57.5z
			 M56.5,11c0-0.8-0.7-1.5-1.5-1.5s-1.5,0.7-1.5,1.5s0.7,1.5,1.5,1.5S56.5,11.8,56.5,11z M58.5,52.6v3.9c0,1.1-0.9,2-2,2h-46
			c-1.1,0-2-0.9-2-2v-3.9h5.8v-2H8.5v-6h5.4c0.3,0.6,0.9,1,1.7,1c1.1,0,2-0.9,2-2c0-1.1-0.9-2-2-2c-0.7,0-1.3,0.4-1.7,1H8.5v-8.1
			h5.8v-2H8.5v-6h5.4c0.3,0.6,0.9,1,1.7,1c1.1,0,2-0.9,2-2s-0.9-2-2-2c-0.7,0-1.3,0.4-1.7,1H8.5v-8.1h5.8v-2H8.5v-3.9
			c0-1.1,0.9-2,2-2h46c1.1,0,2,0.9,2,2v3.9h-5.8v2h5.8v8.1h-5.4c-0.4-0.6-1-1-1.8-1c-1.1,0-2,0.9-2,2s0.9,2,2,2c0.8,0,1.4-0.4,1.8-1
			h5.4v6h-5.8v2h5.8v8.1h-5.4c-0.4-0.6-1-1-1.8-1c-1.1,0-2,0.9-2,2c0,1.1,0.9,2,2,2c0.8,0,1.4-0.4,1.8-1h5.4v6h-5.8v2H58.5z
			 M44.4,16.4v-2h-7.6v2H44.4z M32.5,16.4v-2h-9.6v2H32.5z"/>
	</g>
	<g>
	</g>
</g>
</svg>
