<?xml version="1.0" encoding="utf-8"?>
<!-- Generator: Adobe Illustrator 23.0.3, SVG Export Plug-In . SVG Version: 6.00 Build 0)  -->
<svg version="1.1" id="lockup-gsuite" xmlns="http://www.w3.org/2000/svg" xmlns:xlink="http://www.w3.org/1999/xlink" x="0px"
	 y="0px" viewBox="0 0 371 371" style="enable-background:new 0 0 371 371;" xml:space="preserve">
<style type="text/css">
	.st0{fill:#606060;}
</style>
<path id="XMLID_69_" class="st0" d="M230.2,69.3c-4.8-4.9-10-8.7-15.5-11.3s-12.5-3.9-20.6-3.9c-6.5,0-12.6,1.1-18.4,3.4
	c-5.7,2.3-10.7,5.5-15,9.7c-4.4,4.2-7.8,9.3-10.3,15.2c-2.5,5.9-3.8,12.5-3.8,19.8s1.3,13.9,3.8,19.8c2.5,5.9,5.9,11,10.3,15.1
	c4.4,4.2,9.5,7.5,15.2,9.8c5.7,2.3,12,3.4,18.6,3.4c7,0,13.1-0.9,18.4-2.9c5.2-2,9.7-4.7,13.5-8c2.5-2.3,4.8-5.1,6.8-8.5
	c2-3.4,3.5-7.2,4.7-11.4h-44.1v-25h72c0.4,1.7,0.7,3.7,1,6.2c0.3,2.5,0.4,4.8,0.4,7.2c0,9.9-1.5,18.9-4.4,27.1
	c-2.9,8.2-7.4,15.4-13.3,21.8c-6.6,7-14.4,12.3-23.6,16.2c-9.2,3.9-19.7,5.7-31.5,5.7c-10.6,0-20.7-1.9-30.1-5.7
	c-9.4-3.9-17.6-9.2-24.7-16c-7-6.8-12.5-14.8-16.7-24.1c-4.2-9.3-6.2-19.6-6.2-30.7s2.1-21.3,6.2-30.7c4.1-9.4,9.6-17.4,16.7-24.2
	c7-6.8,15.2-12,24.7-15.9c9.5-3.9,19.5-5.7,30.1-5.7c12.1,0,22.9,2.1,32.1,6.3c9.3,4.2,17.3,9.9,24.1,17.2L230.2,69.3z"/>
<g id="XMLID_56_">
	<path id="XMLID_67_" class="st0" d="M104.6,279.3c0,10-3.7,18-11,24.1c-7.4,5.9-16.4,8.9-27,8.9c-9.4,0-17.8-2.8-25-8.3
		c-7.2-5.5-12.2-13.1-14.9-22.6l14-5.8c1,3.4,2.3,6.5,4,9.3c1.7,2.8,3.7,5.1,5.9,7.1c2.3,1.9,4.8,3.5,7.5,4.6
		c2.8,1.1,5.7,1.7,8.8,1.7c6.7,0,12.2-1.7,16.4-5.2c4.2-3.4,6.3-8,6.3-13.7c0-4.8-1.8-8.8-5.3-12.3c-3.2-3.2-9.4-6.5-18.4-9.6
		c-9.1-3.2-14.8-5.5-17-6.7c-12.1-6.2-18.1-15.2-18.1-27.2c0-8.4,3.3-15.5,10-21.4c6.8-5.9,15.1-8.9,25-8.9c8.7,0,16.2,2.2,22.6,6.7
		c6.3,4.4,10.6,9.8,12.7,16.4l-13.6,5.6c-1.3-4.2-3.8-7.8-7.5-10.6c-3.7-2.8-8.4-4.2-13.7-4.2c-5.8,0-10.6,1.6-14.4,4.8
		c-3.9,2.9-5.8,6.8-5.8,11.5c0,3.9,1.5,7.3,4.6,10.1c3.4,2.8,10.8,6.2,22.1,10.1c11.5,3.9,19.8,8.8,24.8,14.4
		C102.1,264,104.6,271,104.6,279.3z"/>
	<path id="XMLID_65_" class="st0" d="M185.7,309.7h-14v-10.8H171c-2.2,3.8-5.7,7-10.2,9.6c-4.6,2.5-9.4,3.8-14.4,3.8
		c-9.6,0-16.9-2.8-22-8.2c-5.1-5.4-7.7-13.2-7.7-23.3v-49h14.6v48.1c0.3,12.7,6.7,19.1,19.2,19.1c5.8,0,10.7-2.4,14.6-7.1
		c3.9-4.7,5.8-10.4,5.8-17v-43.1h14.6V309.7z"/>
	<path id="XMLID_62_" class="st0" d="M219,204.9c0,2.8-1,5.3-3,7.3c-2,2-4.5,3-7.3,3s-5.3-1-7.3-3c-2-2-3-4.5-3-7.3s1-5.3,3-7.3
		c2-2,4.5-3,7.3-3s5.3,1,7.3,3C218,199.7,219,202.1,219,204.9z M216,231.8v77.9h-14.6v-77.9H216z"/>
	<path id="XMLID_60_" class="st0" d="M260.9,311c-6.3,0-11.6-1.9-15.8-5.8s-6.3-9.4-6.4-16.4v-43.6h-13.7v-13.4h13.6v-23.9h14.6
		v23.9h19.1v13.4h-19.1V284c0,5.2,1,8.7,3,10.6s4.3,2.8,6.8,2.8c1.1,0,2.3-0.2,3.4-0.4s2.1-0.6,3.1-1.1l4.6,13.1
		C270.5,310.3,266,311,260.9,311L260.9,311z"/>
	<path id="XMLID_57_" class="st0" d="M315.6,312.2c-11.4,0-20.9-3.9-28.3-11.8c-7.4-7.9-11.1-17.8-11.1-29.7
		c0-11.9,3.6-21.8,10.8-29.6c7.2-7.9,16.4-11.9,27.7-11.9c11.5,0,20.8,3.7,27.6,11.2c6.8,7.5,10.2,17.9,10.2,31.4l-0.2,1.6h-61.2
		c0.2,7.6,2.8,13.8,7.6,18.4c4.9,4.6,10.7,7,17.5,7c9.3,0,16.6-4.6,21.9-14l13.1,6.3c-3.5,6.6-8.4,11.7-14.5,15.4
		C330.5,310.4,323.4,312.2,315.6,312.2L315.6,312.2z M292.2,261.4h44.7c-0.4-5.4-2.6-9.9-6.6-13.5c-4-3.6-9.3-5.4-16-5.4
		c-5.5,0-10.2,1.7-14.2,5.1C296.1,251.1,293.5,255.7,292.2,261.4z"/>
</g>
</svg>
