<?xml version="1.0" encoding="utf-8"?>
<!-- Generator: Adobe Illustrator 23.0.3, SVG Export Plug-In . SVG Version: 6.00 Build 0)  -->
<svg version="1.1" id="Layer_1" xmlns="http://www.w3.org/2000/svg" xmlns:xlink="http://www.w3.org/1999/xlink" x="0px" y="0px"
	 viewBox="0 0 110 110" style="enable-background:new 0 0 110 110;" xml:space="preserve">
<path d="M100,36c1.1,0,2-0.9,2-2s-0.9-2-2-2h-8v-2h8c1.1,0,2-0.9,2-2s-0.9-2-2-2h-8v-2c0-3.3-2.7-6-6-6h-2v-8c0-1.1-0.9-2-2-2
	s-2,0.9-2,2v8h-2v-8c0-1.1-0.9-2-2-2s-2,0.9-2,2v8h-2v-8c0-1.1-0.9-2-2-2s-2,0.9-2,2v8h-2v-8c0-1.1-0.9-2-2-2s-2,0.9-2,2v8h-2v-8
	c0-1.1-0.9-2-2-2s-2,0.9-2,2v8h-2v-8c0-1.1-0.9-2-2-2s-2,0.9-2,2v8h-2v-8c0-1.1-0.9-2-2-2s-2,0.9-2,2v8h-2v-8c0-1.1-0.9-2-2-2
	s-2,0.9-2,2v8h-2v-8c0-1.1-0.9-2-2-2s-2,0.9-2,2v8h-2v-8c0-1.1-0.9-2-2-2s-2,0.9-2,2v8h-2c-3.3,0-6,2.7-6,6v2h-8c-1.1,0-2,0.9-2,2
	s0.9,2,2,2h8v2h-8c-1.1,0-2,0.9-2,2s0.9,2,2,2h8v2h-8c-1.1,0-2,0.9-2,2s0.9,2,2,2h8v2h-8c-1.1,0-2,0.9-2,2s0.9,2,2,2h8v2h-8
	c-1.1,0-2,0.9-2,2s0.9,2,2,2h8v2h-8c-1.1,0-2,0.9-2,2s0.9,2,2,2h8v2h-8c-1.1,0-2,0.9-2,2s0.9,2,2,2h8v2h-8c-1.1,0-2,0.9-2,2
	s0.9,2,2,2h8v2h-8c-1.1,0-2,0.9-2,2s0.9,2,2,2h8v2h-8c-1.1,0-2,0.9-2,2s0.9,2,2,2h8v2c0,3.3,2.7,6,6,6h2v8c0,1.1,0.9,2,2,2
	s2-0.9,2-2v-8h2v8c0,1.1,0.9,2,2,2s2-0.9,2-2v-8h2v8c0,1.1,0.9,2,2,2s2-0.9,2-2v-8h2v8c0,1.1,0.9,2,2,2s2-0.9,2-2v-8h2v8
	c0,1.1,0.9,2,2,2s2-0.9,2-2v-8h2v8c0,1.1,0.9,2,2,2s2-0.9,2-2v-8h2v8c0,1.1,0.9,2,2,2s2-0.9,2-2v-8h2v8c0,1.1,0.9,2,2,2s2-0.9,2-2
	v-8h2v8c0,1.1,0.9,2,2,2s2-0.9,2-2v-8h2v8c0,1.1,0.9,2,2,2s2-0.9,2-2v-8h2c3.3,0,6-2.7,6-6v-2h8c1.1,0,2-0.9,2-2s-0.9-2-2-2h-8v-2h8
	c1.1,0,2-0.9,2-2s-0.9-2-2-2h-8v-2h8c1.1,0,2-0.9,2-2s-0.9-2-2-2h-8v-2h8c1.1,0,2-0.9,2-2s-0.9-2-2-2h-8v-2h8c1.1,0,2-0.9,2-2
	s-0.9-2-2-2h-8v-2h8c1.1,0,2-0.9,2-2s-0.9-2-2-2h-8v-2h8c1.1,0,2-0.9,2-2s-0.9-2-2-2h-8v-2h8c1.1,0,2-0.9,2-2s-0.9-2-2-2h-8v-2H100z
	 M53.3,59.7c-0.1-0.1-0.2-0.1-0.3-0.2l-0.2-0.1l0,0c0,0-0.1-0.1-0.2-0.1c-1.1-1.2-1-3.2,0.3-4.4c1.3-1.2,3.2-1.2,4.4,0.1
	c0.1,0,0.1,0.1,0.1,0.2l0,0l0.1,0.2c0.1,0.1,0.1,0.2,0.2,0.3l8.2,13.2L53.3,59.7z M70.1,79.6c-0.3,0.2-0.6,0.3-0.8,0.3
	c-0.5,0-0.9-0.2-1.2-0.7c-0.5-0.7-0.3-1.6,0.4-2.1c1.1-0.7,2.1-1.5,3-2.4l-0.3-0.3h0l-1.5-1.5l-1.4-1.4l1.2-1.2l1.4,1.4l1.5,1.5
	l0.3,0.4c3.9-4.2,6.3-9.7,6.5-15.6h-4.6v-1.7H79c-0.2-6-2.6-11.4-6.4-15.5l-0.4,0.4l-1.4,1.4L69.3,44l-1.2-1.2l1.5-1.5L71,40
	l0.4-0.4c-4.1-3.8-9.6-6.3-15.5-6.5v4.6h-1.7v-4.6c-6,0.2-11.4,2.6-15.5,6.5l0.4,0.4l1.5,1.5l1.4,1.4L40.7,44l-1.4-1.4l-1.5-1.5
	l-0.4-0.4c-3.8,4.1-6.3,9.6-6.5,15.5h4.6V58H31c0.2,5.9,2.5,11.4,6.5,15.6l0.4-0.4l2.9-2.9l1.2,1.2l-1.5,1.4L39,74.4l-0.4,0.4
	c0.9,0.9,1.9,1.7,3,2.4c0.7,0.5,0.9,1.4,0.4,2.1c-0.5,0.7-1.4,0.9-2.1,0.4c-7.5-5-12-13.4-12-22.5c0-14.9,12.1-27,27-27
	s27.1,12.1,27.1,27C82.1,66.2,77.6,74.6,70.1,79.6z M55.1,55c-1.1,0-2.1,0.8-2.2,2c0,1.2,0.8,2.1,2,2.2c1.1,0,2.1-0.8,2.2-2
	C57.1,56,56.2,55.1,55.1,55z"/>
</svg>
