<?xml version="1.0" encoding="utf-8"?>
<!-- Generator: Adobe Illustrator 23.0.3, SVG Export Plug-In . SVG Version: 6.00 Build 0)  -->
<svg version="1.1" id="Layer_1" xmlns="http://www.w3.org/2000/svg" xmlns:xlink="http://www.w3.org/1999/xlink" x="0px" y="0px"
	 viewBox="0 0 792 612" style="enable-background:new 0 0 792 612;" xml:space="preserve">
<style type="text/css">
	.st0{fill:#1572B6;}
	.st1{fill:#33A9DC;}
	.st2{fill:#FFFFFF;}
	.st3{fill:#EBEBEB;}
	.st4{fill:#E44F26;}
	.st5{fill:#F1662A;}
</style>
<g>
	<polygon class="st0" points="405.7,559.2 366.3,117.6 799,117.6 759.6,559 582.5,608.2 	"/>
	<polygon class="st1" points="582.7,570.7 725.9,531 759.6,153.7 582.7,153.7 	"/>
	<g>
		<polygon class="st2" points="582.7,313.6 654.4,313.6 659.3,258.2 582.7,258.2 582.7,204 582.8,204 718.6,204 717.2,218.5 
			703.9,367.8 582.7,367.8 		"/>
		<polygon class="st3" points="582.9,454.3 582.7,454.4 522.4,438.1 518.6,394.9 489.3,394.9 464.3,394.9 471.8,479.9 582.7,510.7 
			582.9,510.6 		"/>
		<polygon class="st2" points="649.7,365.5 643.3,438.1 582.8,454.4 582.8,510.7 693.9,479.9 694.7,470.8 704,365.5 		"/>
		<polygon class="st3" points="582.8,204 582.8,237.6 582.8,258 582.8,258.2 452.3,258.2 452.3,258.2 452,258.2 450.9,246 
			448.4,218.5 447.2,204 		"/>
		<polygon class="st3" points="582.7,313.6 582.7,347.3 582.7,367.7 582.7,367.8 523.2,367.8 523.2,367.8 523.1,367.8 522,355.6 
			519.5,328.1 518.3,313.6 		"/>
	</g>
</g>
<g>
	<polygon class="st4" points="41.4,487 0,22.7 454.9,22.7 413.5,487 227.2,538.6 	"/>
	<polygon class="st5" points="227.5,499.1 378.1,457.3 413.5,60.6 227.5,60.6 	"/>
	<polygon class="st3" points="227.5,232.8 152.1,232.8 146.9,174.6 227.5,174.6 227.5,117.6 227.2,117.6 84.7,117.6 86,132.8 
		100.1,289.8 227.5,289.8 	"/>
	<polygon class="st3" points="227.5,380.8 227.2,380.8 163.8,363.7 159.7,318.3 128.9,318.3 102.5,318.3 110.6,407.7 227.2,440.1 
		227.5,440 	"/>
	<polygon class="st2" points="227.2,232.8 227.2,289.8 297.4,289.8 290.8,363.6 227.2,380.8 227.2,440.1 344,407.7 344.9,398.2 
		358.3,248.2 359.6,232.8 344.3,232.8 	"/>
	<polygon class="st2" points="227.2,117.6 227.2,153 227.2,174.3 227.2,174.6 364.6,174.6 364.6,174.6 364.9,174.6 366,161.8 
		368.5,132.8 369.9,117.6 	"/>
</g>
</svg>
