<?xml version="1.0" encoding="utf-8"?>
<!-- Generator: Adobe Illustrator 23.0.3, SVG Export Plug-In . SVG Version: 6.00 Build 0)  -->
<svg version="1.1" id="Layer_1" xmlns="http://www.w3.org/2000/svg" xmlns:xlink="http://www.w3.org/1999/xlink" x="0px" y="0px"
	 viewBox="0 0 3224.4 3006.2" style="enable-background:new 0 0 3224.4 3006.2;" xml:space="preserve">
<style type="text/css">
	.st0{fill:#F7DF1E;}
</style>
<circle class="st0" cx="1560.6" cy="1540.6" r="1360.6"/>
<path d="M697.8,1903.9l191.3-115.8c36.9,65.4,70.5,120.8,151,120.8c77.2,0,125.9-30.2,125.9-147.7V962.4h234.9v802.1
	c0,243.3-142.6,354.1-350.7,354.1C862.2,2118.7,753.1,2021.3,697.8,1903.9 M1528.5,1878.7l191.3-110.8
	c50.4,82.2,115.8,142.6,231.6,142.6c97.4,0,159.4-48.7,159.4-115.8c0-80.5-63.8-109.1-171.2-156.1l-58.7-25.2
	c-169.5-72.1-281.9-162.8-281.9-354.1c0-176.2,134.2-310.5,344-310.5c149.4,0,256.8,52,333.9,188L2094,1254.5
	c-40.3-72.2-83.9-100.7-151-100.7c-68.8,0-112.4,43.6-112.4,100.7c0,70.5,43.6,99,144.3,142.7l58.7,25.2
	c199.7,85.6,312.1,172.9,312.1,369.2c0,211.5-166.1,327.2-389.3,327.2C1738.3,2118.7,1597.3,2014.7,1528.5,1878.7"/>
</svg>
