<?xml version="1.0" encoding="utf-8"?>
<!-- Generator: Adobe Illustrator 23.0.3, SVG Export Plug-In . SVG Version: 6.00 Build 0)  -->
<svg version="1.1"
	 id="svg3509" xmlns:cc="http://creativecommons.org/ns#" xmlns:dc="http://purl.org/dc/elements/1.1/" xmlns:inkscape="http://www.inkscape.org/namespaces/inkscape" xmlns:rdf="http://www.w3.org/1999/02/22-rdf-syntax-ns#" xmlns:sodipodi="http://sodipodi.sourceforge.net/DTD/sodipodi-0.dtd" xmlns:svg="http://www.w3.org/2000/svg"
	 xmlns="http://www.w3.org/2000/svg" xmlns:xlink="http://www.w3.org/1999/xlink" x="0px" y="0px" viewBox="0 0 365.6 365.3"
	 style="enable-background:new 0 0 365.6 365.3;" xml:space="preserve">
<style type="text/css">
	.st0{fill:#000017;stroke:#000001;stroke-width:4.8505;}
	.st1{fill:#FFFFFF;}
	.st2{fill:#FF7700;}
</style>
<g id="g27972-7-8" transform="translate(-5.9488935,3.4019938)">
	<path id="rect3438-4-1-6-9-8-4-5-7" inkscape:connector-curvature="0" class="st0" d="M51.9,59.9h273.7c1.2,0,2.2,1,2.2,2.3v262.7
		c0,1.3-1,2.3-2.2,2.3H51.9c-1.2,0-2.2-1-2.2-2.3V62.2C49.7,60.9,50.7,59.9,51.9,59.9z"/>
</g>
<path id="path3008-3-9" inkscape:connector-curvature="0" class="st1" d="M114.3,174l40.5-51.2c8.3-10.4,12.4-18.3,12.4-23.4
	c0-1.9-0.2-3.4-0.7-4.5h70.7c-5.4,3-12.1,9.4-20.2,19.1c-2.2,2.5-6,7.2-11.4,14l-53.1,66.1l63.4,87.2c3.9,5.3,8.8,11.2,14.7,17.8
	c1.6,1.7,3.9,3.7,6.9,6.1H165c0.6-2.2,0.8-4.1,0.8-5.8c0-5.2-3.6-12.7-10.7-22.4l-40.8-55.6v56.3c0,13.1,2.6,22.3,7.9,27.5H55.9
	c3.7-3.7,6-7.9,7.1-12.6c0.6-2.6,0.8-7.6,0.8-14.8V122.2c0-7.2-0.3-12.2-0.8-14.8c-1-4.7-3.4-8.9-7.1-12.6h66.3
	c-5.3,5.3-7.9,14.4-7.9,27.4L114.3,174"/>
<path id="path28126" inkscape:connector-curvature="0" class="st1" d="M303.9,150.6v129.6c0,6.8,0.2,11.2,0.6,13.3
	c0.8,4.2,2.7,8.1,5.9,11.6h-62.1c3.2-3.5,5.2-7.3,5.9-11.6c0.4-2.1,0.6-6.5,0.6-13.3v-105c0-6.8-0.2-11.1-0.6-13.1
	c-0.8-4.1-2.7-8-5.8-11.4L303.9,150.6"/>
<path id="path3552-6-3-7-2-5" inkscape:connector-curvature="0" class="st2" d="M307.9,63.3c0,15.8-12.8,28.6-28.7,28.6
	c-15.8,0-28.7-12.8-28.7-28.6c0-15.8,12.8-28.6,28.7-28.6C295.1,34.7,307.9,47.5,307.9,63.3L307.9,63.3z"/>
</svg>
