<?xml version="1.0" encoding="utf-8"?>
<!-- Generator: Adobe Illustrator 23.0.3, SVG Export Plug-In . SVG Version: 6.00 Build 0)  -->
<svg version="1.1" id="Layer_1" xmlns="http://www.w3.org/2000/svg" xmlns:xlink="http://www.w3.org/1999/xlink" x="0px" y="0px"
	 viewBox="0 0 66 66" style="enable-background:new 0 0 66 66;" xml:space="preserve">
<style type="text/css">
	.st0{fill:#4AB4D8;}
	.st1{fill:#909190;}
	.st2{fill:#FFFFFF;}
</style>
<g>
	<g>
		<path d="M62.6,31V16.2c1.4-0.4,2.4-1.7,2.4-3.3c0-1.9-1.5-3.4-3.4-3.4s-3.4,1.5-3.4,3.4c0,1.5,1,2.8,2.4,3.3v14.4L58.1,33
			c-0.3-1.2-1-2.3-2-3.1c-1.1-1-2.3-1.6-3.7-1.8l2.5-2.5c0.2-0.2,0.3-0.4,0.3-0.7V9.7c1.4-0.4,2.4-1.7,2.4-3.3
			c0-1.9-1.5-3.4-3.4-3.4s-3.4,1.5-3.4,3.4c0,1.5,1,2.8,2.4,3.3v14.7l-2.8,2.8c-1.7-3.9-6.4-5.7-10.4-3.9V9.5
			c1.4-0.4,2.4-1.7,2.4-3.3c0-1.9-1.5-3.4-3.4-3.4s-3.4,1.5-3.4,3.4c0,1.5,1,2.8,2.4,3.3v12.6c-2.2-1.9-5.3-2.2-7.8-0.9V9.5
			c1.4-0.4,2.4-1.7,2.4-3.3c0-1.9-1.5-3.4-3.4-3.4s-3.4,1.5-3.4,3.4c0,1.5,1,2.8,2.4,3.3v11.2c-4.7-3.6-11.8-1.2-13.3,4.7L12.6,23
			V8.6C14,8.1,15,6.8,15,5.3c0-1.9-1.5-3.4-3.4-3.4S8.1,3.4,8.1,5.3c0,1.5,1,2.8,2.4,3.3v14.8c0,0.3,0.1,0.5,0.3,0.7l2.5,2.5
			c-3.1,0.5-5.4,2.9-5.8,5.9l-2.1-2.1V16c1.4-0.4,2.4-1.7,2.4-3.3c0-1.9-1.5-3.4-3.4-3.4S1,10.9,1,12.8c0,1.5,1,2.8,2.4,3.3v14.8
			c0,0.3,0.1,0.5,0.3,0.7l3,3c-3.1,1.3-4.4,4.4-4.2,7c0.3,3.1,2.6,6.5,7,6.5h8.2v3.4c0,0.5,0.3,0.9,0.8,1l2.2,0.4
			c0.2,0.8,0.6,1.6,1,2.4L20.5,57c-0.3,0.4-0.2,0.9,0.1,1.3l3,3.1c0.3,0.3,0.9,0.4,1.3,0.1l1.8-1.3c0.8,0.4,1.5,0.7,2.4,1l0.4,2.2
			c0.1,0.5,0.5,0.8,1,0.8h4.3c0.5,0,0.9-0.3,1-0.8l0.4-2.2c0.8-0.2,1.6-0.6,2.4-1l1.8,1.3c0.4,0.3,0.9,0.2,1.3-0.1l3.1-3.1
			c0.3-0.3,0.4-0.9,0.1-1.3l-1.3-1.8c0.4-0.8,0.7-1.5,1-2.4l2.2-0.4c0.5-0.1,0.8-0.5,0.8-1V48h8.2c4.2,0,6.5-3.1,7-6.1
			c0.4-2.6-0.7-5.7-3.6-7.2l3.2-3.2C62.5,31.5,62.6,31.2,62.6,31z M52.8,6.5c0-0.8,0.6-1.4,1.4-1.4s1.4,0.6,1.4,1.4S55,7.9,54.2,7.9
			S52.8,7.3,52.8,6.5z M10.1,5.3c0-0.8,0.6-1.4,1.4-1.4c0.8,0,1.4,0.6,1.4,1.4s-0.6,1.4-1.4,1.4C10.8,6.7,10.1,6.1,10.1,5.3z
			 M3,12.8c0-0.8,0.6-1.4,1.4-1.4s1.4,0.6,1.4,1.4c0,0.8-0.6,1.4-1.4,1.4S3,13.5,3,12.8z M37.7,6.2c0-0.8,0.6-1.4,1.4-1.4
			c0.8,0,1.4,0.6,1.4,1.4s-0.6,1.4-1.4,1.4S37.7,7,37.7,6.2z M27.9,6.2c0-0.8,0.6-1.4,1.4-1.4s1.4,0.6,1.4,1.4s-0.6,1.4-1.4,1.4
			C28.5,7.7,27.9,7,27.9,6.2z M60.1,12.9c0-0.8,0.6-1.4,1.4-1.4c0.8,0,1.4,0.6,1.4,1.4c0,0.8-0.6,1.4-1.4,1.4
			C60.8,14.3,60.1,13.7,60.1,12.9z"/>
		<g id="XMLID_2_">
			<g>
				<path class="st0" d="M45.6,48v2.6h-0.1l-2,0.3c-0.4,0.1-0.7,0.4-0.8,0.8c-0.2,1-0.6,2-1.2,3c-0.2,0.3-0.2,0.8,0,1.1l1.1,1.6
					l-1.9,1.9l-1.6-1.1c-0.3-0.2-0.8-0.2-1.1,0c-0.9,0.6-1.9,1-3,1.2c-0.4,0.1-0.7,0.4-0.8,0.8l-0.3,2h-2.6l-0.3-2
					c-0.1-0.4-0.4-0.7-0.8-0.8c-1.1-0.3-2.1-0.7-3-1.2c-0.3-0.2-0.8-0.2-1.1,0l-1.6,1.1l-1.9-1.9l1.1-1.6c0.2-0.3,0.2-0.8,0-1.1
					c-0.6-0.9-1-1.9-1.2-3c-0.1-0.4-0.4-0.7-0.8-0.8l-2-0.3V48l2-0.4c0.4-0.1,0.7-0.4,0.8-0.8c0.2-1,0.7-2.1,1.2-3
					c0.2-0.3,0.2-0.8,0-1.1l-1.1-1.6l1.9-1.9l1.6,1.1c0.3,0.2,0.7,0.2,1.1,0c0.9-0.6,1.9-1,3-1.2c0.4-0.1,0.7-0.4,0.8-0.8l0.3-2H34
					l0.3,2c0.1,0.4,0.4,0.7,0.8,0.8c1.1,0.3,2.1,0.7,3,1.2c0.3,0.2,0.8,0.2,1.1,0l1.6-1.1l1.9,1.9l-1.1,1.6c-0.2,0.3-0.2,0.8,0,1.1
					c0.6,0.9,1,1.9,1.2,3c0.1,0.4,0.4,0.7,0.8,0.8L45.6,48z"/>
			</g>
			<g>
			</g>
		</g>
		<g id="XMLID_1_">
			<g>
				<path class="st1" d="M29.4,35.3L29,37.5c-0.8,0.2-1.6,0.6-2.4,1L25,37.2c-0.2-0.1-0.4-0.2-0.6-0.2l-0.1-1.2
					c5.9-0.6,9.5-7.1,6.5-12.4c1.1-0.8,2.5-1.2,3.9-0.9c3.8,0.7,3.2,4,4.9,3.5c0.5-0.1,2.6-2.3,6-1c1.6,0.6,2.9,1.9,3.4,3.5
					c-2.7,1-4.4,3.6-4.4,6.5c0,0.6,0.4,1,1,1c0.6,0,1-0.4,1-1c0-4.3,5.1-6.7,8.4-3.5c1.1,1,1.7,2.5,1.6,3.7c-0.1,0.5,0.3,1,0.7,1.1
					c2.7,0.7,3.7,3.3,3.4,5.5s-2,4.4-5,4.4h-9.4l-1.8-0.3c-0.2-0.8-0.6-1.6-1-2.4l1.3-1.8c0.3-0.4,0.2-0.9-0.1-1.3l-3.1-3
					c-0.3-0.3-0.9-0.4-1.3-0.1l-1.8,1.2c-0.7-0.4-1.5-0.7-2.4-1l-0.4-2.2c-0.1-0.5-0.5-0.8-1-0.8h-4.3
					C29.9,34.5,29.5,34.8,29.4,35.3z"/>
				<path class="st1" d="M24.3,35.8l0.1,1.2c-0.3,0-0.5,0.1-0.7,0.3l-3,3c-0.3,0.3-0.4,0.9-0.1,1.3l1.3,1.8c-0.4,0.8-0.7,1.5-1,2.4
					l-2,0.4c-0.4-0.1,0.8,0-9.2,0c-3.2,0-4.8-2.3-5-4.7c-0.6-7.3,10-7.1,10-0.4c0,0.6,0.4,1,1,1s1-0.4,1-1c0-4.3-3.9-7.3-7.1-7
					c-0.4-3.2,2.5-6.2,6.1-5.5c0.6,0.1,1.2-0.4,1.2-1.1c0-6,7.4-8.6,11.3-4.3c0,0,0,0.1,0.1,0.1c3.5,4.1,0.6,10.6-4.9,10.6
					c-0.6,0-1,0.4-1,1c0,0.6,0.4,1,1,1C23.7,35.9,24,35.9,24.3,35.8z"/>
			</g>
			<g>
			</g>
		</g>
	</g>
	<g>
		<path d="M32.7,41.6c-4.2,0-7.7,3.5-7.7,7.7s3.5,7.7,7.7,7.7s7.7-3.5,7.7-7.7S36.9,41.6,32.7,41.6z M32.7,55
			c-3.1,0-5.7-2.6-5.7-5.7c0-3.1,2.6-5.7,5.7-5.7s5.7,2.6,5.7,5.7C38.4,52.5,35.8,55,32.7,55z"/>
	</g>
</g>
<circle class="st2" cx="32.7" cy="49.3" r="5.7"/>
</svg>
