<?xml version="1.0" encoding="utf-8"?>
<!-- Generator: Adobe Illustrator 23.0.3, SVG Export Plug-In . SVG Version: 6.00 Build 0)  -->
<svg version="1.1" id="Layer_1" xmlns="http://www.w3.org/2000/svg" xmlns:xlink="http://www.w3.org/1999/xlink" x="0px" y="0px"
	 viewBox="0 0 404 404" style="enable-background:new 0 0 404 404;" xml:space="preserve">
<style type="text/css">
	.st0{fill:#F4F4F4;}
	.st1{fill:#00AEEF;}
	.st2{fill:#FFFFFF;}
</style>
<g id="XMLID_1_">
	<g>
		<path class="st0" d="M200.8,32c93.8,0,169.9,76.1,169.9,169.9c0,93.8-76.1,169.9-169.9,169.9C107,371.7,31,295.6,31,201.8
			C31,108,107,32,200.8,32z"/>
	</g>
	<g>
	</g>
</g>
<path class="st1" d="M188,22.4c-35.9,4.7-67.9,15.1-97,37.5C73.3,73.5,58.3,90.7,47,110c-57.7,98.1-8.6,232.7,103,264.6
	c24.4,7,49.8,9.3,75,6.1c26-3.2,50.8-12.3,73-26.1c108-67.2,111.1-229.8,6-301.2c-17.1-11.6-35.9-20.4-56-25.5
	C228.9,23.1,207.7,19.8,188,22.4z"/>
<path class="st2" d="M191,45.4c-34.6,4.5-64.9,15.2-92,38C85.1,95.2,73.4,110.1,64.7,126c-48.4,88.2-0.4,201.8,97.3,227.8
	c19.5,5.2,40,6.4,60,3.9c22.8-2.8,45.8-11.1,65-23.7c84.9-55.9,97-181.9,19-249.7c-16.2-14.1-34.7-24.5-55-31.3
	C232.4,46.8,210.6,42.8,191,45.4z"/>
<path class="st1" d="M201,67c-1.9,23.2-9.2,48.4-15,71c14.2,9.6,17.8,9.6,32,0c-5.8-22.6-13.1-47.8-15-71H201 M105,105
	c13.4,24.2,30.1,46.7,44.9,70c4.2,6.7,16,19,16,27s-11.8,20.3-16,27c-14.8,23.3-31.5,45.8-44.9,70c24.2-13.4,46.7-30.1,70-44.9
	c6.7-4.2,19-16,27-16s20.3,11.8,27,16c23.3,14.8,45.9,31.6,70,44.9c-13.4-24.2-30.1-46.7-44.9-70c-4.2-6.7-16-19-16-27
	s11.8-20.3,16-27c14.8-23.3,31.5-45.8,44.9-70c-24.2,13.4-46.7,30.1-70,44.9c-6.7,4.2-19,16-27,16s-20.3-11.8-27-16
	C151.7,135.1,129.2,118.4,105,105 M67,201v2c23.2,1.9,48.4,9.2,71,15c9.6-14.2,9.6-17.8,0-32C115.4,191.8,90.2,199.1,67,201
	 M266,186c-9.6,14.2-9.6,17.8,0,32c22.6-5.8,47.8-13.1,71-15v-2C313.8,199.1,288.6,191.8,266,186 M186,266c5.8,22.6,13.1,47.8,15,71
	h2c1.9-23.2,9.2-48.4,15-71C203.8,256.4,200.2,256.4,186,266z"/>
</svg>
