<?xml version="1.0" encoding="utf-8"?>
<!-- Generator: Adobe Illustrator 23.0.3, SVG Export Plug-In . SVG Version: 6.00 Build 0)  -->
<svg version="1.1" id="Layer_1" xmlns="http://www.w3.org/2000/svg" xmlns:xlink="http://www.w3.org/1999/xlink" x="0px" y="0px"
	 viewBox="0 0 70 70" style="enable-background:new 0 0 70 70;" xml:space="preserve">
<style type="text/css">
	.st0{fill:#A0ACAF;}
	.st1{fill:#FCFCFC;}
</style>
<g>
	<path d="M59.1,3C19.7,3.2,21,2.7,20.4,3.3c0,0,0,0,0,0l-8,8c0,0,0,0,0,0c-0.2,0.2-0.3,0.5-0.3,0.7v54c0,0.6,0.4,1,1,1h46
		c0.6,0,1-0.4,1-1V4C60.1,3.5,59.7,3,59.1,3z M20.1,6.5V11h-4.6L20.1,6.5z"/>
	<g id="XMLID_1_">
		<g>
			<path class="st0" d="M58.1,57v8h-44v-8h8c0.6,0,1-0.5,1-1s-0.4-1-1-1h-8v-5h8c0.6,0,1-0.5,1-1s-0.4-1-1-1h-8v-5h5
				c0.6,0,1-0.5,1-1s-0.4-1-1-1h-5v-5h4c0.6,0,1-0.5,1-1s-0.4-1-1-1h-4v-5h5c0.6,0,1-0.5,1-1c0-0.6-0.4-1-1-1h-5v-5h8
				c0.6,0,1-0.5,1-1c0-0.6-0.4-1-1-1h-8v-7h7c0.6,0,1-0.4,1-1V5h36v15h-8c-0.6,0-1,0.4-1,1c0,0.5,0.4,1,1,1h8v5h-5c-0.6,0-1,0.4-1,1
				c0,0.5,0.4,1,1,1h5v5h-4c-0.6,0-1,0.5-1,1s0.4,1,1,1h4v5h-5c-0.6,0-1,0.5-1,1s0.4,1,1,1h5v5h-8c-0.6,0-1,0.5-1,1s0.4,1,1,1h8v5
				h-8c-0.6,0-1,0.5-1,1s0.4,1,1,1H58.1z"/>
		</g>
		<g>
		</g>
	</g>
</g>
<g>
	<path d="M49.1,33c0-0.6-0.4-1-1-1h-3.3c-0.1-0.4-0.3-0.7-0.4-1.1l2.3-2.3c1.2-1.2-1.2-2.3-2.8-4.2c-1-1-2,0.7-3.7,2.3
		c-0.3-0.2-0.7-0.3-1.1-0.4V23c0-0.6-0.4-1-1-1h-4c-1.6,0-0.8,2.4-1,4.3c-0.4,0.1-0.7,0.3-1.1,0.4l-2.3-2.3
		c-1.2-1.2-2.4,1.3-4.2,2.8c-1.1,1.1,1.1,2.2,2.3,3.7c-0.2,0.3-0.3,0.7-0.4,1.1h-3.3c-1.6,0-0.8,2.5-1,5c0,1.6,2.3,0.8,4.3,1
		c0.1,0.4,0.3,0.7,0.4,1.1c-3.6,3.8-3.6,2.2,0.5,6.5c1.1,1.1,2.2-1.1,3.7-2.3c0.3,0.2,0.7,0.3,1.1,0.4V47c0,1.6,2.5,0.8,5,1
		c1.6,0,0.8-2.4,1-4.3c0.4-0.1,0.7-0.3,1.1-0.4l2.3,2.3c1.2,1.2,2.3-1.2,4.2-2.8c1.1-1.1-1.1-2.2-2.3-3.7c0.2-0.3,0.3-0.7,0.4-1.1
		h3.3c0.6,0,1-0.4,1-1V33z"/>
	<g id="XMLID_2_">
		<g>
			<path class="st1" d="M47.1,34v2c-2.1,0.2-3.7-0.5-4,0.8c-0.5,1.9-1.5,2.4-0.7,3.2l2.1,2.1l-1.4,1.4c-1.6-1.4-2.3-2.9-3.4-2.3
				c-0.6,0.4-1.3,0.6-2,0.8c-0.4,0.1-0.8,0.5-0.8,1v3h-2c-0.2-2.1,0.5-3.7-0.8-4c-1.8-0.5-2.4-1.5-3.2-0.7l-2.1,2.1l-1.4-1.4
				l2.1-2.1c0.3-0.3,0.4-0.8,0.1-1.2c-0.4-0.6-0.6-1.3-0.8-2c-0.1-0.5-0.5-0.8-1-0.8h-3v-2h3c0.5,0,0.9-0.3,1-0.8
				c0.2-0.7,0.4-1.3,0.8-2c0.2-0.4,0.2-0.9-0.1-1.2L27.6,28l1.4-1.4c1.6,1.4,2.3,2.9,3.3,2.3c1.6-1,2.7-0.6,2.7-1.8v-3h2
				c0.2,2.1-0.5,3.7,0.8,4c1.9,0.5,2.4,1.5,3.2,0.7l2.1-2.1l1.4,1.4l-2.1,2.1c-0.3,0.3-0.4,0.8-0.2,1.2c0.4,0.6,0.6,1.3,0.8,2
				C43.5,34.5,45,33.9,47.1,34z"/>
		</g>
		<g>
		</g>
	</g>
</g>
<g>
	<path d="M36.1,31c-2.2,0-4,1.8-4,4s1.8,4,4,4s4-1.8,4-4S38.3,31,36.1,31z M36.1,37c-1.1,0-2-0.9-2-2s0.9-2,2-2s2,0.9,2,2
		S37.2,37,36.1,37z"/>
</g>
</svg>
