<?xml version="1.0" encoding="utf-8"?>
<!-- Generator: Adobe Illustrator 23.0.3, SVG Export Plug-In . SVG Version: 6.00 Build 0)  -->
<svg version="1.1" id="Layer_1" xmlns="http://www.w3.org/2000/svg" xmlns:xlink="http://www.w3.org/1999/xlink" x="0px" y="0px"
	 viewBox="0 0 64 63.1" style="enable-background:new 0 0 64 63.1;" xml:space="preserve">
<style type="text/css">
	.st0{fill:#4AB4D8;}
	.st1{fill:#FFFFFF;}
</style>
<title>a</title>
<rect x="5" y="15.7" class="st0" width="54.6" height="43.9"/>
<rect x="4.1" y="10.1" class="st1" width="5.8" height="44.2"/>
<rect x="30.2" y="10.1" class="st1" width="23.8" height="38.9"/>
<g>
	<path d="M59,15h-4V8c0-2.8-2.2-5-5-5H34c-2.8,0-5,2.2-5,5v7H11v-4c0-1.1-0.9-2-2-2H7c-2.2,0-4,1.8-4,4v44l0,0l0,0
		c0.2,2.2,2,3.9,4.2,3.9H59c1.1,0,2-0.9,2-2V17C61,15.9,60.1,15,59,15z M31,16v-5h22v28H31V16z M31,41h22v5c0,1.7-1.3,3-3,3H34
		c-1.7,0-3-1.3-3-3V41z M31,8c0-1.7,1.3-3,3-3h16c1.7,0,3,1.3,3,3v1H31V8z M5,13c0-1.1,0.9-2,2-2h2v42H7c-0.2,0-0.5,0-0.7,0.1
		c-0.1,0-0.1,0-0.2,0c-0.2,0.1-0.5,0.1-0.7,0.2l0,0c-0.2,0.1-0.3,0.1-0.4,0.2C5,53.5,5,13,5,13z M59,59H7.2c-1.1,0-2-0.9-2.2-2
		c0-1.1,0.9-2,2-2h2c1.1,0,2-0.9,2-2V17h18v29c0,2.8,2.2,5,5,5h16c2.8,0,5-2.2,5-5V17h4V59z"/>
	<path d="M44,6h-4c-0.6,0-1,0.4-1,1s0.4,1,1,1h4c0.6,0,1-0.4,1-1S44.6,6,44,6z"/>
	<path d="M42,48c1.7,0,3-1.3,3-3s-1.3-3-3-3s-3,1.3-3,3S40.3,48,42,48z M42,44c0.6,0,1,0.4,1,1s-0.4,1-1,1s-1-0.4-1-1S41.4,44,42,44
		z"/>
	<path d="M46.9,25c1.3-1.3,2.1-3.1,2.1-5c0-3.1-1.8-5.8-4.7-6.9c-0.5-0.2-1.1,0.1-1.3,0.6c0,0.1-0.1,0.2-0.1,0.3v3
		c0,0.3-0.1,0.6-0.4,0.8C42.4,18,42.1,18,41.8,18c-0.5-0.1-0.8-0.6-0.8-1.1V14c0-0.6-0.4-1-1-1c-0.1,0-0.2,0-0.3,0.1
		C36.8,14.2,35,16.9,35,20c0,1.9,0.8,3.7,2.1,5c0.6,0.6,0.9,1.3,0.9,2.1V35h-2c-0.6,0-1,0.4-1,1s0.4,1,1,1h12c0.6,0,1-0.4,1-1
		s-0.4-1-1-1h-2v-7.9C46,26.3,46.3,25.6,46.9,25z M40,35v-7.9c0-1.3-0.5-2.6-1.5-3.6c-1-0.9-1.5-2.2-1.5-3.6c0-1.7,0.7-3.2,2-4.3
		v1.2c0,1.5,1,2.8,2.5,3.1c1.6,0.3,3.2-0.8,3.5-2.5c0-0.2,0-0.3,0-0.5v-1.3c1.3,1.1,2,2.6,2,4.3c0,1.3-0.5,2.6-1.5,3.6
		c-1,0.9-1.5,2.2-1.5,3.6V35H40z"/>
	<path d="M25,27H15c-1.1,0-2,0.9-2,2v2c0,1.1,0.9,2,2,2h10c1.1,0,2-0.9,2-2v-2C27,27.9,26.1,27,25,27z M25,31H15v-2h10V31z"/>
	<path d="M26,35h-4c-0.6,0-1,0.4-1,1s0.4,1,1,1h4c0.6,0,1-0.4,1-1S26.6,35,26,35z"/>
	<path d="M26,39H14c-0.6,0-1,0.4-1,1s0.4,1,1,1h12c0.6,0,1-0.4,1-1S26.6,39,26,39z"/>
	<path d="M26,43H14c-0.6,0-1,0.4-1,1s0.4,1,1,1h12c0.6,0,1-0.4,1-1S26.6,43,26,43z"/>
	<path d="M14,37h4c0.6,0,1-0.4,1-1s-0.4-1-1-1h-4c-0.6,0-1,0.4-1,1S13.4,37,14,37z"/>
</g>
</svg>
