<?xml version="1.0" encoding="utf-8"?>
<!-- Generator: Adobe Illustrator 23.0.3, SVG Export Plug-In . SVG Version: 6.00 Build 0)  -->
<svg version="1.1"
	 id="Layer_1" xmlns:cc="http://creativecommons.org/ns#" xmlns:dc="http://purl.org/dc/elements/1.1/" xmlns:rdf="http://www.w3.org/1999/02/22-rdf-syntax-ns#" xmlns:svg="http://www.w3.org/2000/svg"
	 xmlns="http://www.w3.org/2000/svg" xmlns:xlink="http://www.w3.org/1999/xlink" x="0px" y="0px" viewBox="0 0 725 720"
	 style="enable-background:new 0 0 725 720;" xml:space="preserve">
<style type="text/css">
	.st0{fill:#75A928;}
	.st1{fill:#BC1142;}
</style>
<path d="M238.4,1.7c-3.6,0.1-7.5,1.4-11.9,4.9c-10.8-4.2-21.3-5.6-30.7,2.9c-14.5-1.9-19.2,2-22.8,6.5c-3.2-0.1-23.8-3.3-33.3,10.8
	c-23.8-2.8-31.3,14-22.8,29.7c-4.9,7.5-9.9,14.9,1.5,29.3c-4,8-1.5,16.6,7.9,27.1c-2.5,11.2,2.4,19.1,11.2,25.3
	c-1.6,15.4,14.1,24.3,18.8,27.5c1.8,8.9,5.6,17.4,23.5,22.1c3,13.3,13.8,15.6,24.2,18.4c-34.6,20.1-64.2,46.5-64,111.4l-5.1,9
	c-39.6,24.1-75.3,101.6-19.5,164.5c3.6,19.7,9.7,33.9,15.2,49.5c8.1,63.1,61.2,92.7,75.2,96.2c20.5,15.6,42.4,30.5,71.9,40.8
	c27.9,28.7,58.1,39.7,88.4,39.7c0.4,0,0.9,0,1.3,0c30.4,0,60.6-10.9,88.4-39.7c29.6-10.4,51.4-25.2,71.9-40.8
	c14-3.5,67.1-33.1,75.2-96.2c5.4-15.7,11.5-29.8,15.2-49.5c55.8-63,20.1-140.4-19.5-164.5l-5.1-9c0.2-64.9-29.4-91.3-64-111.4
	c10.5-2.8,21.3-5.1,24.2-18.4c18-4.7,21.7-13.1,23.5-22.1c4.7-3.2,20.4-12.1,18.8-27.5c8.8-6.2,13.7-14.1,11.2-25.3
	c9.5-10.5,12-19.1,7.9-27.1c11.4-14.3,6.3-21.8,1.5-29.3c8.5-15.7,1-32.5-22.8-29.7C584.7,12.7,564,15.9,560.8,16
	c-3.6-4.5-8.3-8.4-22.8-6.5c-9.4-8.5-19.9-7.1-30.7-2.9c-12.9-10.1-21.4-2-31.1,1.1c-15.6-5.1-19.1,1.9-26.8,4.7
	c-17-3.6-22.1,4.2-30.3,12.5l-9.5-0.2c-25.6,15.1-38.3,45.8-42.8,61.6c-4.5-15.8-17.2-46.5-42.8-61.6l-9.5,0.2
	c-8.1-8.2-13.3-16.1-30.3-12.5c-7.6-2.8-11.2-9.8-26.8-4.7C251.2,5.6,245.3,1.4,238.4,1.7z"/>
<path class="st0" d="M187.4,68.1c67.9,35,107.4,63.4,129.1,87.5c-11.1,44.4-68.9,46.4-90,45.2c4.3-2,7.9-4.4,9.2-8.1
	c-5.3-3.8-24.1-0.4-37.2-7.8c5-1,7.4-2.1,9.8-5.8c-12.4-4-25.8-7.4-33.6-13.9c4.2,0.1,8.2,0.9,13.7-2.9c-11.1-6-23-10.7-32.2-19.9
	c5.7-0.1,11.9-0.1,13.7-2.2c-10.2-6.3-18.8-13.3-25.9-21c8,1,11.4,0.1,13.4-1.3c-7.7-7.9-17.4-14.5-22.1-24.2
	c6,2.1,11.4,2.8,15.4-0.2c-2.6-5.9-13.8-9.4-20.2-23.1c6.3,0.6,12.9,1.4,14.3,0c-2.9-11.9-7.9-18.6-12.8-25.5
	c13.5-0.2,33.8,0.1,32.9-1.1l-8.3-8.5c13.1-3.5,26.6,0.6,36.3,3.6c4.4-3.5-0.1-7.8-5.4-12.3c11.2,1.5,21.3,4.1,30.4,7.6
	c4.9-4.4-3.2-8.8-7.1-13.2c17.2,3.3,24.6,7.9,31.8,12.5c5.3-5.1,0.3-9.3-3.3-13.7c13,4.8,19.7,11,26.8,17.2
	c2.4-3.2,6.1-5.6,1.6-13.4c9.2,5.3,16.2,11.6,21.3,18.6c5.7-3.6,3.4-8.6,3.4-13.2c9.6,7.8,15.7,16.1,23.1,24.2
	c1.5-1.1,2.8-4.8,4-10.7c22.9,22.2,55.2,78.2,8.3,100.3C288,110,240.3,86,187.4,68.1z"/>
<path class="st0" d="M547.9,68.1c-67.9,35-107.4,63.4-129.1,87.5c11.1,44.4,68.9,46.4,90,45.2c-4.3-2-7.9-4.4-9.2-8.1
	c5.3-3.8,24.1-0.4,37.2-7.8c-5-1-7.4-2.1-9.8-5.8c12.4-4,25.8-7.4,33.6-13.9c-4.2,0.1-8.2,0.9-13.7-2.9c11.1-6,23-10.7,32.2-19.9
	c-5.7-0.1-11.9-0.1-13.7-2.2c10.2-6.3,18.8-13.3,25.9-21c-8,1-11.4,0.1-13.4-1.3c7.7-7.9,17.4-14.5,22.1-24.2
	c-6,2.1-11.4,2.8-15.4-0.2c2.6-5.9,13.8-9.4,20.2-23.1c-6.3,0.6-12.9,1.4-14.3,0c2.9-11.9,7.9-18.6,12.8-25.5
	c-13.5-0.2-33.8,0.1-32.9-1.1l8.3-8.5c-13.1-3.5-26.6,0.6-36.3,3.6c-4.4-3.5,0.1-7.8,5.4-12.3c-11.2,1.5-21.3,4.1-30.4,7.6
	c-4.9-4.4,3.2-8.8,7.1-13.2c-17.2,3.3-24.6,7.9-31.8,12.5c-5.3-5.1-0.3-9.3,3.3-13.7c-13,4.8-19.7,11-26.8,17.2
	c-2.4-3.2-6.1-5.6-1.6-13.4c-9.2,5.3-16.2,11.6-21.3,18.6c-5.7-3.6-3.4-8.6-3.4-13.2c-9.6,7.8-15.7,16.1-23.1,24.2
	c-1.5-1.1-2.8-4.8-4-10.7c-22.9,22.2-55.2,78.2-8.3,100.3C447.4,110,495.1,86,547.9,68.1L547.9,68.1z"/>
<path class="st1" d="M449.9,520.4c0,41.4-36.4,75.1-81.4,75.1s-81.4-33.6-81.4-75.1s36.4-75.1,81.4-75.1S449.9,478.9,449.9,520.4z"
	/>
<path class="st1" d="M321.5,306c33.7,22.1,39.8,72.2,13.6,111.9s-74.8,53.9-108.5,31.9l0,0c-33.7-22.1-39.8-72.2-13.6-111.9
	S287.7,283.9,321.5,306L321.5,306z"/>
<path class="st1" d="M412.5,302c-33.7,22.1-39.8,72.2-13.6,111.9s74.8,53.9,108.5,31.9l0,0c33.7-22.1,39.8-72.2,13.6-111.9
	C494.8,294.1,446.2,279.9,412.5,302L412.5,302z"/>
<path class="st1" d="M152.9,342.1c36.4-9.8,12.3,150.6-17.3,137.5C103,453.4,92.5,376.6,152.9,342.1z"/>
<path class="st1" d="M573.7,340.1c-36.4-9.8-12.3,150.6,17.3,137.5C623.6,451.4,634.1,374.6,573.7,340.1z"/>
<path class="st1" d="M450,220.7c62.8-10.6,115.1,26.7,113,94.9C560.9,341.6,426.8,224.5,450,220.7L450,220.7z"/>
<path class="st1" d="M276.4,218.7c-62.8-10.6-115.1,26.7-113,94.9C165.4,339.6,299.5,222.5,276.4,218.7z"/>
<path class="st1" d="M366.6,202.8c-37.5-1-73.5,27.8-73.6,44.5c-0.1,20.3,29.7,41.1,73.8,41.6c45.1,0.3,73.9-16.6,74.1-37.6
	C441.1,227.6,399.9,202.4,366.6,202.8L366.6,202.8z"/>
<path class="st1" d="M368.9,619.1c32.7-1.4,76.6,10.5,76.7,26.4c0.5,15.4-39.8,50.2-78.8,49.5c-40.4,1.7-80.1-33.1-79.5-45.2
	C286.6,632.1,336.4,618.3,368.9,619.1z"/>
<path class="st1" d="M248.1,525.1c23.3,28,33.9,77.3,14.5,91.8c-18.4,11.1-63,6.5-94.7-39.1c-21.4-38.2-18.6-77.2-3.6-88.6
	C186.7,475.6,221.4,494.1,248.1,525.1z"/>
<path class="st1" d="M485,516.2c-25.2,29.5-39.2,83.3-20.8,100.6c17.6,13.5,64.7,11.6,99.6-36.8c25.3-32.5,16.8-86.7,2.4-101.1
	C544.7,462.4,513.8,483.7,485,516.2z"/>
</svg>
