<?xml version="1.0" encoding="utf-8"?>
<!-- Generator: Adobe Illustrator 23.0.3, SVG Export Plug-In . SVG Version: 6.00 Build 0)  -->
<svg version="1.1" id="Layer_1" xmlns="http://www.w3.org/2000/svg" xmlns:xlink="http://www.w3.org/1999/xlink" x="0px" y="0px"
	 viewBox="0 0 126.2 125.6" style="enable-background:new 0 0 126.2 125.6;" xml:space="preserve">
<style type="text/css">
	.st0{fill:#FBBD16;}
	.st1{fill:#452E7F;}
	.st2{fill:#962444;}
	.st3{fill:#6D6E71;}
</style>
<polygon class="st0" points="26.8,104.7 26.8,70 33.5,107.4 44.3,112.8 51.3,81.7 51.3,115.8 63.5,121.8 63.5,64.3 44.9,55.5 
	39.1,82.9 33.1,49.8 14.7,41 14.7,98.6 "/>
<polygon class="st1" points="65.2,64.2 84.6,54.2 84.6,95.9 111.4,82 111.5,97.8 65.3,122.1 "/>
<path class="st2" d="M57.4,3.6L43.7,15.7c0,0,26.8,13.8,30,15.4c3.3,1.6,7.9,4.8,2.9,9.4c-5,4.6-10.5,4-14.3,2.1
	S30.8,26.7,30.8,26.7l-14.1,12c0,0,27.3,13.9,31.8,16.3c4.5,2.4,21.3,8.3,37.1-4.1s13.6-16.9,13.6-17.8s-0.4-5.5-3.1-8.4
	c-2.8-2.9-10.8-7-14.1-8.8S57.4,3.6,57.4,3.6z"/>
<g>
	<path class="st3" d="M111,74c0,2-1.6,3.6-3.7,3.6c-2.1,0-3.7-1.6-3.7-3.6c0-2,1.6-3.6,3.7-3.6C109.4,70.4,111,72,111,74z M104.5,74
		c0,1.6,1.2,2.9,2.8,2.9c1.6,0,2.7-1.3,2.7-2.8c0-1.6-1.2-2.9-2.8-2.9C105.7,71.1,104.5,72.4,104.5,74z M106.7,75.9h-0.8v-3.6
		c0.3-0.1,0.8-0.1,1.4-0.1c0.7,0,1,0.1,1.2,0.3c0.2,0.2,0.3,0.4,0.3,0.8c0,0.4-0.3,0.7-0.7,0.8v0c0.4,0.1,0.5,0.4,0.7,0.9
		c0.1,0.5,0.2,0.8,0.3,0.9h-0.9c-0.1-0.1-0.2-0.5-0.3-0.9c-0.1-0.4-0.3-0.6-0.7-0.6h-0.4L106.7,75.9L106.7,75.9z M106.7,73.9h0.4
		c0.5,0,0.8-0.2,0.8-0.5c0-0.3-0.2-0.5-0.8-0.5c-0.2,0-0.4,0-0.5,0L106.7,73.9L106.7,73.9z"/>
</g>
</svg>
