<?xml version="1.0" encoding="utf-8"?>
<!-- Generator: Adobe Illustrator 23.0.3, SVG Export Plug-In . SVG Version: 6.00 Build 0)  -->
<svg version="1.1" id="splitsvg" xmlns="http://www.w3.org/2000/svg" xmlns:xlink="http://www.w3.org/1999/xlink" x="0px" y="0px"
	 viewBox="0 0 1380 1102.9" style="enable-background:new 0 0 1380 1102.9;" xml:space="preserve">
<style type="text/css">
	.st0{fill-rule:evenodd;clip-rule:evenodd;fill:#04ACEC;}
</style>
<g>
	<path class="st0" d="M899.3,75.5c-151.9,22.2-278,40.7-280.1,41l-3.8,0.6v208.1v208.1l8.3,0c6.6,0,553-4.4,553.8-4.5
		c0.1,0,0.2-111.1,0.2-247c0-197-0.2-246.9-1.1-246.8C1176,35,1051.2,53.3,899.3,75.5"/>
	<path class="st0" d="M349.3,153.7l-208.9,28.5l0,177.4l0,177.4l10.1-0.5c5.6-0.3,64.3-0.7,130.5-0.9s157.1-0.7,202.1-1.1l81.8-0.6
		V329.5V125l-3.4,0.1C559.7,125.2,464.2,138.1,349.3,153.7"/>
	<path class="st0" d="M140.4,754.5v177.1l2,0.4c1.1,0.2,95.5,13.2,209.8,28.9c114.3,15.6,208.8,28.7,210.2,28.9l2.5,0.5V785.3V580.1
		l-18.3,0c-10,0-101.8-0.6-203.9-1.3c-102.1-0.7-189.4-1.3-194-1.3l-8.3,0V754.5"/>
	<path class="st0" d="M614.7,789.1c0.3,113.6,0.7,206.8,0.9,207s125.5,18,278.4,39.6c152.9,21.6,279.3,39.4,280.9,39.7l2.9,0.5
		V829.8V583.8H961.2c-119.1,0-245.9-0.3-281.8-0.6l-65.2-0.6L614.7,789.1"/>
</g>
</svg>
